STARTFONT 2.1
COMMENT Copyright (C) 1994 Aleksei Rudnev <alex@kiae.su>
COMMENT Portions Copyright (C) 1994-1995 Cronyx Ltd.
COMMENT Changes Copyright (C) 1996-1997 by Andrey A. Chernov, Moscow, Russia.
COMMENT Changes 1999 by Serge Winitzki.
COMMENT This software may be used, modified, copied, distributed, and sold,
COMMENT in both source and binary form provided that the copyright
COMMENT and these terms are retained. Under no circumstances is the author
COMMENT responsible for the proper functioning of this software, nor does
COMMENT the author assume any responsibility for damages incurred with its use.
COMMENT $XFree86$
FONT -Cronyx-Fixed-Bold-R-Normal--16-120-100-100-C-80-KOI8-R
SIZE 16 100 100
FONTBOUNDINGBOX 10 16 0 -2
STARTPROPERTIES 21
FONTNAME_REGISTRY ""
FOUNDRY "Cronyx"
FAMILY_NAME "Fixed"
WEIGHT_NAME "Bold"
SLANT "R"
SETWIDTH_NAME "Normal"
ADD_STYLE_NAME ""
PIXEL_SIZE 16
POINT_SIZE 120
RESOLUTION_X 100
RESOLUTION_Y 100
SPACING "C"
AVERAGE_WIDTH 80
CHARSET_REGISTRY "KOI8"
CHARSET_ENCODING "R"
DEFAULT_CHAR 32
FONT_DESCENT 2
FONT_ASCENT 14
COPYRIGHT "Copyright (C) 1994 Aleksei Rudnev <alex@kiae.su>, Portions Copyright (C) 1996-1997 by Andrey A. Chernov, Moscow, Russia."
_XMBDFED_INFO "Edited with xmbdfed 4.3."
_XFREE86_GLYPH_RANGES "10_25 32_126 149 154 156_157 163 179 191_255"
ENDPROPERTIES
CHARS 182
STARTCHAR uni240B
ENCODING 10
SWIDTH 450 0
DWIDTH 10 0
BBX 10 1 0 4
BITMAP
7FC0
ENDCHAR
STARTCHAR SF040000
ENCODING 11
SWIDTH 450 0
DWIDTH 10 0
BBX 8 9 0 4
BITMAP
0C
0C
0C
0C
0C
0C
0C
0C
7C
ENDCHAR
STARTCHAR SF030000
ENCODING 12
SWIDTH 450 0
DWIDTH 10 0
BBX 8 7 0 -2
BITMAP
7C
0C
0C
0C
0C
0C
0C
ENDCHAR
STARTCHAR SF010000
ENCODING 13
SWIDTH 450 0
DWIDTH 10 0
BBX 10 7 0 -2
BITMAP
0FC0
0C00
0C00
0C00
0C00
0C00
0C00
ENDCHAR
STARTCHAR SF020000
ENCODING 14
SWIDTH 450 0
DWIDTH 10 0
BBX 10 9 0 4
BITMAP
0C00
0C00
0C00
0C00
0C00
0C00
0C00
0C00
0FC0
ENDCHAR
STARTCHAR SF050000
ENCODING 15
SWIDTH 450 0
DWIDTH 10 0
BBX 10 15 0 -2
BITMAP
0C00
0C00
0C00
0C00
0C00
0C00
0C00
0C00
7FC0
0C00
0C00
0C00
0C00
0C00
0C00
ENDCHAR
STARTCHAR char16
ENCODING 16
SWIDTH 450 0
DWIDTH 10 0
BBX 10 1 0 10
BITMAP
FFC0
ENDCHAR
STARTCHAR char17
ENCODING 17
SWIDTH 450 0
DWIDTH 10 0
BBX 10 1 0 7
BITMAP
FFC0
ENDCHAR
STARTCHAR char18
ENCODING 18
SWIDTH 450 0
DWIDTH 10 0
BBX 10 1 0 4
BITMAP
7FC0
ENDCHAR
STARTCHAR char19
ENCODING 19
SWIDTH 450 0
DWIDTH 10 0
BBX 10 1 0 2
BITMAP
FFC0
ENDCHAR
STARTCHAR char20
ENCODING 20
SWIDTH 450 0
DWIDTH 10 0
BBX 10 1 0 -1
BITMAP
FFC0
ENDCHAR
STARTCHAR SF080000
ENCODING 21
SWIDTH 450 0
DWIDTH 10 0
BBX 10 15 0 -2
BITMAP
0C00
0C00
0C00
0C00
0C00
0C00
0C00
0C00
0FC0
0C00
0C00
0C00
0C00
0C00
0C00
ENDCHAR
STARTCHAR SF090000
ENCODING 22
SWIDTH 450 0
DWIDTH 10 0
BBX 8 15 0 -2
BITMAP
0C
0C
0C
0C
0C
0C
0C
0C
7C
0C
0C
0C
0C
0C
0C
ENDCHAR
STARTCHAR SF070000
ENCODING 23
SWIDTH 450 0
DWIDTH 10 0
BBX 10 9 0 4
BITMAP
0C00
0C00
0C00
0C00
0C00
0C00
0C00
0C00
7FC0
ENDCHAR
STARTCHAR SF060000
ENCODING 24
SWIDTH 450 0
DWIDTH 10 0
BBX 10 7 0 -2
BITMAP
7FC0
0C00
0C00
0C00
0C00
0C00
0C00
ENDCHAR
STARTCHAR SF110000
ENCODING 25
SWIDTH 450 0
DWIDTH 10 0
BBX 10 15 0 -2
BITMAP
0C00
0C00
0C00
0C00
0C00
0C00
0C00
0C00
0C00
0C00
0C00
0C00
0C00
0C00
0C00
ENDCHAR
STARTCHAR space
ENCODING 32
SWIDTH 450 0
DWIDTH 10 0
BBX 0 0 0 0
BITMAP
ENDCHAR
STARTCHAR exclam
ENCODING 33
SWIDTH 450 0
DWIDTH 10 0
BBX 10 10 0 0
BITMAP
0C00
0C00
0C00
0C00
0C00
0C00
0C00
0000
0C00
0C00
ENDCHAR
STARTCHAR quotedbl
ENCODING 34
SWIDTH 450 0
DWIDTH 10 0
BBX 8 4 0 8
BITMAP
33
33
33
22
ENDCHAR
STARTCHAR numbersign
ENCODING 35
SWIDTH 450 0
DWIDTH 10 0
BBX 8 10 0 0
BITMAP
1B
1B
1B
7F
36
36
7F
6C
6C
6C
ENDCHAR
STARTCHAR dollar
ENCODING 36
SWIDTH 450 0
DWIDTH 10 0
BBX 10 10 0 0
BITMAP
0C00
3F00
6D80
6C00
3C00
0F00
0D80
6D80
3F00
0C00
ENDCHAR
STARTCHAR percent
ENCODING 37
SWIDTH 450 0
DWIDTH 10 0
BBX 10 10 0 0
BITMAP
3180
6980
6B00
3E00
0C00
1800
3700
6D80
6D80
4700
ENDCHAR
STARTCHAR ampersand
ENCODING 38
SWIDTH 450 0
DWIDTH 10 0
BBX 10 10 0 0
BITMAP
1E00
3300
3300
3300
1E00
3880
6D80
6700
6700
3980
ENDCHAR
STARTCHAR quotesingle
ENCODING 39
SWIDTH 450 0
DWIDTH 10 0
BBX 10 4 0 8
BITMAP
0C00
0C00
0C00
0800
ENDCHAR
STARTCHAR parenleft
ENCODING 40
SWIDTH 450 0
DWIDTH 10 0
BBX 8 12 0 -1
BITMAP
06
0C
0C
18
18
18
18
18
18
0C
0C
06
ENDCHAR
STARTCHAR parenright
ENCODING 41
SWIDTH 450 0
DWIDTH 10 0
BBX 8 12 0 -1
BITMAP
30
18
18
0C
0C
0C
0C
0C
0C
18
18
30
ENDCHAR
STARTCHAR asterisk
ENCODING 42
SWIDTH 450 0
DWIDTH 10 0
BBX 10 7 0 1
BITMAP
0C00
6D80
7F80
3E00
7F80
6D80
0C00
ENDCHAR
STARTCHAR plus
ENCODING 43
SWIDTH 450 0
DWIDTH 10 0
BBX 10 7 0 1
BITMAP
0C00
0C00
0C00
7F80
0C00
0C00
0C00
ENDCHAR
STARTCHAR comma
ENCODING 44
SWIDTH 450 0
DWIDTH 10 0
BBX 8 4 0 -2
BITMAP
1C
0C
08
10
ENDCHAR
STARTCHAR hyphen
ENCODING 45
SWIDTH 450 0
DWIDTH 10 0
BBX 8 2 0 4
BITMAP
7E
7E
ENDCHAR
STARTCHAR period
ENCODING 46
SWIDTH 450 0
DWIDTH 10 0
BBX 8 3 0 -1
BITMAP
1C
1C
1C
ENDCHAR
STARTCHAR slash
ENCODING 47
SWIDTH 450 0
DWIDTH 10 0
BBX 8 10 0 0
BITMAP
03
03
06
0C
0C
18
18
30
60
60
ENDCHAR
STARTCHAR zero
ENCODING 48
SWIDTH 450 0
DWIDTH 10 0
BBX 8 10 0 0
BITMAP
1C
36
63
63
63
63
63
63
36
1C
ENDCHAR
STARTCHAR one
ENCODING 49
SWIDTH 450 0
DWIDTH 10 0
BBX 8 10 0 0
BITMAP
0C
1C
3C
0C
0C
0C
0C
0C
0C
3F
ENDCHAR
STARTCHAR two
ENCODING 50
SWIDTH 450 0
DWIDTH 10 0
BBX 8 10 0 0
BITMAP
3E
63
63
03
0E
18
30
60
60
7F
ENDCHAR
STARTCHAR three
ENCODING 51
SWIDTH 450 0
DWIDTH 10 0
BBX 8 10 0 0
BITMAP
7F
63
06
0C
1E
03
03
63
63
3E
ENDCHAR
STARTCHAR four
ENCODING 52
SWIDTH 450 0
DWIDTH 10 0
BBX 8 10 0 0
BITMAP
06
0E
1E
36
66
66
7F
06
06
06
ENDCHAR
STARTCHAR five
ENCODING 53
SWIDTH 450 0
DWIDTH 10 0
BBX 8 10 0 0
BITMAP
7E
60
60
60
7E
03
03
03
63
3E
ENDCHAR
STARTCHAR six
ENCODING 54
SWIDTH 450 0
DWIDTH 10 0
BBX 8 10 0 0
BITMAP
1E
30
60
60
7E
63
63
63
63
3E
ENDCHAR
STARTCHAR seven
ENCODING 55
SWIDTH 450 0
DWIDTH 10 0
BBX 8 10 0 0
BITMAP
7F
03
03
06
06
06
0C
0C
0C
0C
ENDCHAR
STARTCHAR eight
ENCODING 56
SWIDTH 450 0
DWIDTH 10 0
BBX 8 10 0 0
BITMAP
3E
63
63
63
3E
63
63
63
63
3E
ENDCHAR
STARTCHAR nine
ENCODING 57
SWIDTH 450 0
DWIDTH 10 0
BBX 8 10 0 0
BITMAP
3E
63
63
63
3F
03
03
03
07
3C
ENDCHAR
STARTCHAR colon
ENCODING 58
SWIDTH 450 0
DWIDTH 10 0
BBX 8 7 0 1
BITMAP
1C
1C
00
00
00
1C
1C
ENDCHAR
STARTCHAR semicolon
ENCODING 59
SWIDTH 450 0
DWIDTH 10 0
BBX 8 9 0 -1
BITMAP
1C
1C
00
00
00
1C
0C
0C
18
ENDCHAR
STARTCHAR less
ENCODING 60
SWIDTH 450 0
DWIDTH 10 0
BBX 8 9 0 0
BITMAP
03
06
0C
18
30
18
0C
06
03
ENDCHAR
STARTCHAR equal
ENCODING 61
SWIDTH 450 0
DWIDTH 10 0
BBX 8 6 0 2
BITMAP
7E
7E
00
00
7E
7E
ENDCHAR
STARTCHAR greater
ENCODING 62
SWIDTH 450 0
DWIDTH 10 0
BBX 8 9 0 0
BITMAP
60
30
18
0C
06
0C
18
30
60
ENDCHAR
STARTCHAR question
ENCODING 63
SWIDTH 450 0
DWIDTH 10 0
BBX 8 10 0 0
BITMAP
3E
63
63
03
06
0C
0C
00
0C
0C
ENDCHAR
STARTCHAR at
ENCODING 64
SWIDTH 450 0
DWIDTH 10 0
BBX 8 10 0 0
BITMAP
1E
23
4B
57
53
53
53
4F
20
1F
ENDCHAR
STARTCHAR A
ENCODING 65
SWIDTH 450 0
DWIDTH 10 0
BBX 8 10 0 0
BITMAP
1C
36
36
63
63
7F
63
63
63
63
ENDCHAR
STARTCHAR B
ENCODING 66
SWIDTH 450 0
DWIDTH 10 0
BBX 8 10 0 0
BITMAP
7C
63
63
63
7E
63
63
63
63
7E
ENDCHAR
STARTCHAR C
ENCODING 67
SWIDTH 450 0
DWIDTH 10 0
BBX 8 10 0 0
BITMAP
3E
63
63
60
60
60
60
63
63
3E
ENDCHAR
STARTCHAR D
ENCODING 68
SWIDTH 450 0
DWIDTH 10 0
BBX 8 10 0 0
BITMAP
7C
66
63
63
63
63
63
63
66
7C
ENDCHAR
STARTCHAR E
ENCODING 69
SWIDTH 450 0
DWIDTH 10 0
BBX 8 10 0 0
BITMAP
7F
60
60
60
7E
60
60
60
60
7F
ENDCHAR
STARTCHAR F
ENCODING 70
SWIDTH 450 0
DWIDTH 10 0
BBX 8 10 0 0
BITMAP
7F
60
60
60
7E
60
60
60
60
60
ENDCHAR
STARTCHAR G
ENCODING 71
SWIDTH 450 0
DWIDTH 10 0
BBX 8 10 0 0
BITMAP
3E
63
63
60
60
6F
63
63
67
3B
ENDCHAR
STARTCHAR H
ENCODING 72
SWIDTH 450 0
DWIDTH 10 0
BBX 8 10 0 0
BITMAP
63
63
63
63
7F
63
63
63
63
63
ENDCHAR
STARTCHAR I
ENCODING 73
SWIDTH 450 0
DWIDTH 10 0
BBX 8 10 0 0
BITMAP
3F
0C
0C
0C
0C
0C
0C
0C
0C
3F
ENDCHAR
STARTCHAR J
ENCODING 74
SWIDTH 450 0
DWIDTH 10 0
BBX 10 10 0 0
BITMAP
1F80
0600
0600
0600
0600
0600
0600
6600
6600
3C00
ENDCHAR
STARTCHAR K
ENCODING 75
SWIDTH 450 0
DWIDTH 10 0
BBX 8 10 0 0
BITMAP
63
66
6C
78
70
70
78
6C
66
63
ENDCHAR
STARTCHAR L
ENCODING 76
SWIDTH 450 0
DWIDTH 10 0
BBX 8 10 0 0
BITMAP
60
60
60
60
60
60
60
60
60
7F
ENDCHAR
STARTCHAR M
ENCODING 77
SWIDTH 450 0
DWIDTH 10 0
BBX 8 10 0 0
BITMAP
63
63
77
7F
6B
6B
63
63
63
63
ENDCHAR
STARTCHAR N
ENCODING 78
SWIDTH 450 0
DWIDTH 10 0
BBX 8 10 0 0
BITMAP
63
63
73
7B
7B
6F
6F
67
67
63
ENDCHAR
STARTCHAR O
ENCODING 79
SWIDTH 450 0
DWIDTH 10 0
BBX 8 10 0 0
BITMAP
3E
63
63
63
63
63
63
63
63
3E
ENDCHAR
STARTCHAR P
ENCODING 80
SWIDTH 450 0
DWIDTH 10 0
BBX 8 10 0 0
BITMAP
7E
63
63
63
7E
60
60
60
60
60
ENDCHAR
STARTCHAR Q
ENCODING 81
SWIDTH 450 0
DWIDTH 10 0
BBX 10 11 0 -1
BITMAP
3E00
6300
6300
6300
6300
6300
6300
7B00
6700
3E00
0380
ENDCHAR
STARTCHAR R
ENCODING 82
SWIDTH 450 0
DWIDTH 10 0
BBX 8 10 0 0
BITMAP
7E
63
63
63
7E
6C
66
66
63
63
ENDCHAR
STARTCHAR S
ENCODING 83
SWIDTH 450 0
DWIDTH 10 0
BBX 8 10 0 0
BITMAP
3E
63
63
60
38
0E
03
63
63
3E
ENDCHAR
STARTCHAR T
ENCODING 84
SWIDTH 450 0
DWIDTH 10 0
BBX 10 10 0 0
BITMAP
7F80
0C00
0C00
0C00
0C00
0C00
0C00
0C00
0C00
0C00
ENDCHAR
STARTCHAR U
ENCODING 85
SWIDTH 450 0
DWIDTH 10 0
BBX 8 10 0 0
BITMAP
63
63
63
63
63
63
63
63
63
3E
ENDCHAR
STARTCHAR V
ENCODING 86
SWIDTH 450 0
DWIDTH 10 0
BBX 10 10 0 0
BITMAP
60C0
71C0
71C0
3B80
3B80
1B00
1F00
0E00
0E00
0400
ENDCHAR
STARTCHAR W
ENCODING 87
SWIDTH 450 0
DWIDTH 10 0
BBX 8 10 0 0
BITMAP
63
63
63
63
6B
7F
77
77
63
63
ENDCHAR
STARTCHAR X
ENCODING 88
SWIDTH 450 0
DWIDTH 10 0
BBX 8 10 0 0
BITMAP
63
63
36
36
1C
1C
36
36
63
63
ENDCHAR
STARTCHAR Y
ENCODING 89
SWIDTH 450 0
DWIDTH 10 0
BBX 10 10 0 0
BITMAP
6180
7380
3300
3300
1E00
0C00
0C00
0C00
0C00
0C00
ENDCHAR
STARTCHAR Z
ENCODING 90
SWIDTH 450 0
DWIDTH 10 0
BBX 8 10 0 0
BITMAP
7F
03
03
06
0C
18
30
60
60
7F
ENDCHAR
STARTCHAR bracketleft
ENCODING 91
SWIDTH 450 0
DWIDTH 10 0
BBX 10 12 0 -1
BITMAP
0F00
0C00
0C00
0C00
0C00
0C00
0C00
0C00
0C00
0C00
0C00
0F00
ENDCHAR
STARTCHAR backslash
ENCODING 92
SWIDTH 450 0
DWIDTH 10 0
BBX 8 10 0 0
BITMAP
60
70
30
18
18
0C
0C
06
03
03
ENDCHAR
STARTCHAR bracketright
ENCODING 93
SWIDTH 450 0
DWIDTH 10 0
BBX 8 12 0 -1
BITMAP
78
18
18
18
18
18
18
18
18
18
18
78
ENDCHAR
STARTCHAR asciicircum
ENCODING 94
SWIDTH 450 0
DWIDTH 10 0
BBX 8 3 0 9
BITMAP
1C
36
63
ENDCHAR
STARTCHAR underscore
ENCODING 95
SWIDTH 450 0
DWIDTH 10 0
BBX 10 2 0 -1
BITMAP
FF80
FF80
ENDCHAR
STARTCHAR grave
ENCODING 96
SWIDTH 450 0
DWIDTH 10 0
BBX 8 4 0 8
BITMAP
18
18
1C
0C
ENDCHAR
STARTCHAR a
ENCODING 97
SWIDTH 450 0
DWIDTH 10 0
BBX 8 8 0 0
BITMAP
3E
63
03
3F
63
63
67
3B
ENDCHAR
STARTCHAR b
ENCODING 98
SWIDTH 450 0
DWIDTH 10 0
BBX 8 11 0 0
BITMAP
60
60
60
6E
73
63
63
63
63
73
6E
ENDCHAR
STARTCHAR c
ENCODING 99
SWIDTH 450 0
DWIDTH 10 0
BBX 8 8 0 0
BITMAP
3E
63
60
60
60
61
63
3E
ENDCHAR
STARTCHAR d
ENCODING 100
SWIDTH 450 0
DWIDTH 10 0
BBX 8 11 0 0
BITMAP
03
03
03
3B
67
63
63
63
63
67
3B
ENDCHAR
STARTCHAR e
ENCODING 101
SWIDTH 450 0
DWIDTH 10 0
BBX 8 8 0 0
BITMAP
3E
63
63
7F
60
60
63
3E
ENDCHAR
STARTCHAR f
ENCODING 102
SWIDTH 450 0
DWIDTH 10 0
BBX 8 11 0 0
BITMAP
0E
19
18
18
7E
18
18
18
18
18
18
ENDCHAR
STARTCHAR g
ENCODING 103
SWIDTH 450 0
DWIDTH 10 0
BBX 8 11 0 -2
BITMAP
03
3F
66
66
66
3C
20
3E
63
63
3E
ENDCHAR
STARTCHAR h
ENCODING 104
SWIDTH 450 0
DWIDTH 10 0
BBX 8 11 0 0
BITMAP
60
60
60
6E
73
63
63
63
63
63
63
ENDCHAR
STARTCHAR i
ENCODING 105
SWIDTH 450 0
DWIDTH 10 0
BBX 8 11 0 0
BITMAP
0C
0C
00
1C
0C
0C
0C
0C
0C
0C
3F
ENDCHAR
STARTCHAR j
ENCODING 106
SWIDTH 450 0
DWIDTH 10 0
BBX 8 13 0 -2
BITMAP
06
06
00
0E
06
06
06
06
06
06
06
4C
38
ENDCHAR
STARTCHAR k
ENCODING 107
SWIDTH 450 0
DWIDTH 10 0
BBX 8 10 0 0
BITMAP
60
60
66
6C
78
70
78
6C
66
63
ENDCHAR
STARTCHAR l
ENCODING 108
SWIDTH 450 0
DWIDTH 10 0
BBX 8 10 0 0
BITMAP
1C
0C
0C
0C
0C
0C
0C
0C
0C
3F
ENDCHAR
STARTCHAR m
ENCODING 109
SWIDTH 450 0
DWIDTH 10 0
BBX 10 8 0 0
BITMAP
7700
6D80
6D80
6D80
6D80
6D80
6D80
6D80
ENDCHAR
STARTCHAR n
ENCODING 110
SWIDTH 450 0
DWIDTH 10 0
BBX 8 8 0 0
BITMAP
6E
73
63
63
63
63
63
63
ENDCHAR
STARTCHAR o
ENCODING 111
SWIDTH 450 0
DWIDTH 10 0
BBX 8 8 0 0
BITMAP
3E
63
63
63
63
63
63
3E
ENDCHAR
STARTCHAR p
ENCODING 112
SWIDTH 450 0
DWIDTH 10 0
BBX 8 10 0 -2
BITMAP
6E
73
63
63
63
63
73
6E
60
60
ENDCHAR
STARTCHAR q
ENCODING 113
SWIDTH 450 0
DWIDTH 10 0
BBX 8 10 0 -2
BITMAP
3B
67
63
63
63
63
67
3B
03
03
ENDCHAR
STARTCHAR r
ENCODING 114
SWIDTH 450 0
DWIDTH 10 0
BBX 8 8 0 0
BITMAP
6E
73
63
60
60
60
60
60
ENDCHAR
STARTCHAR s
ENCODING 115
SWIDTH 450 0
DWIDTH 10 0
BBX 8 8 0 0
BITMAP
3E
63
60
38
0E
03
63
3E
ENDCHAR
STARTCHAR t
ENCODING 116
SWIDTH 450 0
DWIDTH 10 0
BBX 8 10 0 0
BITMAP
18
18
7E
18
18
18
18
18
19
0E
ENDCHAR
STARTCHAR u
ENCODING 117
SWIDTH 450 0
DWIDTH 10 0
BBX 8 8 0 0
BITMAP
63
63
63
63
63
63
67
3B
ENDCHAR
STARTCHAR v
ENCODING 118
SWIDTH 450 0
DWIDTH 10 0
BBX 8 8 0 0
BITMAP
63
63
63
36
36
36
1C
1C
ENDCHAR
STARTCHAR w
ENCODING 119
SWIDTH 450 0
DWIDTH 10 0
BBX 10 8 0 0
BITMAP
6180
6D80
6D80
6D80
6D80
6D80
6D80
3700
ENDCHAR
STARTCHAR x
ENCODING 120
SWIDTH 450 0
DWIDTH 10 0
BBX 8 8 0 0
BITMAP
63
63
36
1C
1C
36
63
63
ENDCHAR
STARTCHAR y
ENCODING 121
SWIDTH 450 0
DWIDTH 10 0
BBX 8 10 0 -2
BITMAP
63
63
63
63
63
37
1B
03
03
3E
ENDCHAR
STARTCHAR z
ENCODING 122
SWIDTH 450 0
DWIDTH 10 0
BBX 8 8 0 0
BITMAP
7F
03
06
0C
18
30
60
7F
ENDCHAR
STARTCHAR braceleft
ENCODING 123
SWIDTH 450 0
DWIDTH 10 0
BBX 8 12 0 -1
BITMAP
0E
18
18
0C
0C
38
38
0C
0C
18
18
0E
ENDCHAR
STARTCHAR bar
ENCODING 124
SWIDTH 450 0
DWIDTH 10 0
BBX 10 14 0 -2
BITMAP
0C00
0C00
0C00
0C00
0C00
0C00
0C00
0C00
0C00
0C00
0C00
0C00
0C00
0C00
ENDCHAR
STARTCHAR braceright
ENCODING 125
SWIDTH 450 0
DWIDTH 10 0
BBX 8 12 0 -1
BITMAP
38
0C
0C
18
18
0E
0E
18
18
0C
0C
38
ENDCHAR
STARTCHAR asciitilde
ENCODING 126
SWIDTH 450 0
DWIDTH 10 0
BBX 10 3 0 8
BITMAP
3980
6D80
6700
ENDCHAR
STARTCHAR bullet
ENCODING 149
SWIDTH 450 0
DWIDTH 10 0
BBX 8 5 0 3
BITMAP
1C
3E
3E
3E
1C
ENDCHAR
STARTCHAR space
ENCODING 154
SWIDTH 450 0
DWIDTH 10 0
BBX 0 0 0 0
BITMAP
ENDCHAR
STARTCHAR degree
ENCODING 156
SWIDTH 450 0
DWIDTH 10 0
BBX 8 4 0 7
BITMAP
0C
12
12
0C
ENDCHAR
STARTCHAR twosuperior
ENCODING 157
SWIDTH 450 0
DWIDTH 10 0
BBX 8 6 0 7
BITMAP
08
14
04
0C
10
1C
ENDCHAR
STARTCHAR afii10071
ENCODING 163
SWIDTH 450 0
DWIDTH 10 0
BBX 8 12 0 0
BITMAP
36
36
00
00
3E
63
63
7F
60
60
63
3E
ENDCHAR
STARTCHAR afii10023
ENCODING 179
SWIDTH 450 0
DWIDTH 10 0
BBX 8 14 0 0
BITMAP
36
36
00
00
7F
60
60
60
7E
60
60
60
60
7F
ENDCHAR
STARTCHAR copyright
ENCODING 191
SWIDTH 450 0
DWIDTH 10 0
BBX 10 10 0 1
BITMAP
1E00
2100
4880
5480
5080
5080
5480
4880
2100
1E00
ENDCHAR
STARTCHAR afii10096
ENCODING 192
SWIDTH 450 0
DWIDTH 10 0
BBX 8 8 0 0
BITMAP
66
6B
6B
7B
6B
6B
6B
66
ENDCHAR
STARTCHAR afii10065
ENCODING 193
SWIDTH 450 0
DWIDTH 10 0
BBX 8 8 0 0
BITMAP
3E
63
03
3F
63
63
67
3B
ENDCHAR
STARTCHAR afii10066
ENCODING 194
SWIDTH 450 0
DWIDTH 10 0
BBX 8 12 0 0
BITMAP
01
3E
60
60
3E
63
63
63
63
63
63
3E
ENDCHAR
STARTCHAR afii10088
ENCODING 195
SWIDTH 450 0
DWIDTH 10 0
BBX 10 10 0 -2
BITMAP
6300
6300
6300
6300
6300
6300
6300
7F80
0180
0300
ENDCHAR
STARTCHAR afii10069
ENCODING 196
SWIDTH 450 0
DWIDTH 10 0
BBX 10 9 0 -1
BITMAP
0F00
1B00
3300
3300
3300
3300
3300
7F80
6180
ENDCHAR
STARTCHAR afii10070
ENCODING 197
SWIDTH 450 0
DWIDTH 10 0
BBX 8 8 0 0
BITMAP
3E
63
63
7F
60
60
63
3E
ENDCHAR
STARTCHAR afii10086
ENCODING 198
SWIDTH 450 0
DWIDTH 10 0
BBX 10 12 0 -2
BITMAP
0C00
0C00
3F00
6D80
6D80
6D80
6D80
6D80
6D80
3F00
0C00
0C00
ENDCHAR
STARTCHAR afii10068
ENCODING 199
SWIDTH 450 0
DWIDTH 10 0
BBX 8 8 0 0
BITMAP
7F
60
60
60
60
60
60
60
ENDCHAR
STARTCHAR afii10087
ENCODING 200
SWIDTH 450 0
DWIDTH 10 0
BBX 8 8 0 0
BITMAP
63
63
36
1C
1C
36
63
63
ENDCHAR
STARTCHAR afii10074
ENCODING 201
SWIDTH 450 0
DWIDTH 10 0
BBX 8 8 0 0
BITMAP
63
67
67
6B
6B
73
73
63
ENDCHAR
STARTCHAR afii10075
ENCODING 202
SWIDTH 450 0
DWIDTH 10 0
BBX 8 11 0 0
BITMAP
36
1C
00
63
67
67
6B
6B
73
73
63
ENDCHAR
STARTCHAR afii10076
ENCODING 203
SWIDTH 450 0
DWIDTH 10 0
BBX 8 8 0 0
BITMAP
63
66
6C
78
78
6C
66
63
ENDCHAR
STARTCHAR afii10077
ENCODING 204
SWIDTH 450 0
DWIDTH 10 0
BBX 8 8 0 0
BITMAP
1F
33
33
33
33
33
33
63
ENDCHAR
STARTCHAR afii10078
ENCODING 205
SWIDTH 450 0
DWIDTH 10 0
BBX 8 8 0 0
BITMAP
63
77
77
7F
6B
6B
63
63
ENDCHAR
STARTCHAR afii10079
ENCODING 206
SWIDTH 450 0
DWIDTH 10 0
BBX 8 8 0 0
BITMAP
63
63
63
7F
63
63
63
63
ENDCHAR
STARTCHAR afii10080
ENCODING 207
SWIDTH 450 0
DWIDTH 10 0
BBX 8 8 0 0
BITMAP
3E
63
63
63
63
63
63
3E
ENDCHAR
STARTCHAR afii10081
ENCODING 208
SWIDTH 450 0
DWIDTH 10 0
BBX 8 8 0 0
BITMAP
7F
63
63
63
63
63
63
63
ENDCHAR
STARTCHAR afii10097
ENCODING 209
SWIDTH 450 0
DWIDTH 10 0
BBX 8 8 0 0
BITMAP
3F
63
63
63
3F
1B
33
63
ENDCHAR
STARTCHAR afii10082
ENCODING 210
SWIDTH 450 0
DWIDTH 10 0
BBX 8 10 0 -2
BITMAP
6E
73
63
63
63
63
73
6E
60
60
ENDCHAR
STARTCHAR afii10083
ENCODING 211
SWIDTH 450 0
DWIDTH 10 0
BBX 8 8 0 0
BITMAP
3E
63
60
60
60
60
63
3E
ENDCHAR
STARTCHAR afii10084
ENCODING 212
SWIDTH 450 0
DWIDTH 10 0
BBX 10 8 0 0
BITMAP
7F80
0C00
0C00
0C00
0C00
0C00
0C00
0C00
ENDCHAR
STARTCHAR afii10085
ENCODING 213
SWIDTH 450 0
DWIDTH 10 0
BBX 8 10 0 -2
BITMAP
63
63
36
36
1C
1C
18
18
30
70
ENDCHAR
STARTCHAR afii10072
ENCODING 214
SWIDTH 450 0
DWIDTH 10 0
BBX 10 8 0 0
BITMAP
6D80
6D80
2D00
1E00
1E00
2D00
6D80
6D80
ENDCHAR
STARTCHAR afii10067
ENCODING 215
SWIDTH 450 0
DWIDTH 10 0
BBX 8 8 0 0
BITMAP
7E
63
63
7E
63
63
63
7E
ENDCHAR
STARTCHAR afii10094
ENCODING 216
SWIDTH 450 0
DWIDTH 10 0
BBX 8 8 0 0
BITMAP
60
60
60
7E
63
63
63
7E
ENDCHAR
STARTCHAR afii10093
ENCODING 217
SWIDTH 450 0
DWIDTH 10 0
BBX 8 8 0 0
BITMAP
63
63
63
7B
6F
6F
6F
7B
ENDCHAR
STARTCHAR afii10073
ENCODING 218
SWIDTH 450 0
DWIDTH 10 0
BBX 8 8 0 0
BITMAP
3E
63
03
0E
0E
03
63
3E
ENDCHAR
STARTCHAR afii10090
ENCODING 219
SWIDTH 450 0
DWIDTH 10 0
BBX 10 8 0 0
BITMAP
6D80
6D80
6D80
6D80
6D80
6D80
6D80
7F80
ENDCHAR
STARTCHAR afii10095
ENCODING 220
SWIDTH 450 0
DWIDTH 10 0
BBX 8 8 0 0
BITMAP
3C
66
03
3F
03
03
66
3C
ENDCHAR
STARTCHAR afii10091
ENCODING 221
SWIDTH 450 0
DWIDTH 10 0
BBX 10 10 0 -2
BITMAP
DB00
DB00
DB00
DB00
DB00
DB00
DB00
FF80
0180
0300
ENDCHAR
STARTCHAR afii10089
ENCODING 222
SWIDTH 450 0
DWIDTH 10 0
BBX 8 8 0 0
BITMAP
63
63
63
63
67
3F
03
03
ENDCHAR
STARTCHAR afii10092
ENCODING 223
SWIDTH 450 0
DWIDTH 10 0
BBX 10 8 0 0
BITMAP
7800
5800
1800
1F00
1980
1980
1980
1F00
ENDCHAR
STARTCHAR afii10048
ENCODING 224
SWIDTH 450 0
DWIDTH 10 0
BBX 8 10 0 0
BITMAP
66
6B
6B
6B
7B
6B
6B
6B
6B
66
ENDCHAR
STARTCHAR afii10017
ENCODING 225
SWIDTH 450 0
DWIDTH 10 0
BBX 8 10 0 0
BITMAP
1C
1C
36
36
63
63
7F
63
63
63
ENDCHAR
STARTCHAR afii10018
ENCODING 226
SWIDTH 450 0
DWIDTH 10 0
BBX 8 10 0 0
BITMAP
7E
60
60
60
7E
63
63
63
63
7E
ENDCHAR
STARTCHAR afii10040
ENCODING 227
SWIDTH 450 0
DWIDTH 10 0
BBX 10 12 0 -2
BITMAP
6300
6300
6300
6300
6300
6300
6300
6300
6300
7F80
0180
0300
ENDCHAR
STARTCHAR afii10021
ENCODING 228
SWIDTH 450 0
DWIDTH 10 0
BBX 10 11 0 -1
BITMAP
1F00
3300
6300
6300
6300
6300
6300
6300
6300
FF80
C180
ENDCHAR
STARTCHAR afii10022
ENCODING 229
SWIDTH 450 0
DWIDTH 10 0
BBX 8 10 0 0
BITMAP
7F
61
60
60
7E
60
60
60
61
7F
ENDCHAR
STARTCHAR afii10038
ENCODING 230
SWIDTH 450 0
DWIDTH 10 0
BBX 10 12 0 0
BITMAP
0C00
0C00
3F00
6D80
6D80
6D80
6D80
6D80
6D80
3F00
0C00
0C00
ENDCHAR
STARTCHAR afii10020
ENCODING 231
SWIDTH 450 0
DWIDTH 10 0
BBX 8 10 0 0
BITMAP
7F
60
60
60
60
60
60
60
60
60
ENDCHAR
STARTCHAR afii10039
ENCODING 232
SWIDTH 450 0
DWIDTH 10 0
BBX 8 10 0 0
BITMAP
63
63
36
36
1C
1C
36
36
63
63
ENDCHAR
STARTCHAR afii10026
ENCODING 233
SWIDTH 450 0
DWIDTH 10 0
BBX 8 10 0 0
BITMAP
63
67
67
6F
6F
7B
7B
73
73
63
ENDCHAR
STARTCHAR afii10027
ENCODING 234
SWIDTH 450 0
DWIDTH 10 0
BBX 8 13 0 0
BITMAP
36
1C
00
63
67
67
6F
6F
7B
7B
73
73
63
ENDCHAR
STARTCHAR afii10028
ENCODING 235
SWIDTH 450 0
DWIDTH 10 0
BBX 8 10 0 0
BITMAP
63
66
6C
78
70
70
78
6C
66
63
ENDCHAR
STARTCHAR afii10029
ENCODING 236
SWIDTH 450 0
DWIDTH 10 0
BBX 8 10 0 0
BITMAP
0F
1B
33
33
33
33
33
33
33
63
ENDCHAR
STARTCHAR afii10030
ENCODING 237
SWIDTH 450 0
DWIDTH 10 0
BBX 8 10 0 0
BITMAP
63
63
77
77
7F
6B
6B
63
63
63
ENDCHAR
STARTCHAR afii10031
ENCODING 238
SWIDTH 450 0
DWIDTH 10 0
BBX 8 10 0 0
BITMAP
63
63
63
63
7F
63
63
63
63
63
ENDCHAR
STARTCHAR afii10032
ENCODING 239
SWIDTH 450 0
DWIDTH 10 0
BBX 8 10 0 0
BITMAP
3E
63
63
63
63
63
63
63
63
3E
ENDCHAR
STARTCHAR afii10033
ENCODING 240
SWIDTH 450 0
DWIDTH 10 0
BBX 8 10 0 0
BITMAP
7F
63
63
63
63
63
63
63
63
63
ENDCHAR
STARTCHAR afii10049
ENCODING 241
SWIDTH 450 0
DWIDTH 10 0
BBX 8 10 0 0
BITMAP
3F
63
63
63
63
3F
33
33
63
63
ENDCHAR
STARTCHAR afii10034
ENCODING 242
SWIDTH 450 0
DWIDTH 10 0
BBX 8 10 0 0
BITMAP
7E
63
63
63
63
7E
60
60
60
60
ENDCHAR
STARTCHAR afii10035
ENCODING 243
SWIDTH 450 0
DWIDTH 10 0
BBX 8 10 0 0
BITMAP
3E
63
63
60
60
60
60
63
63
3E
ENDCHAR
STARTCHAR afii10036
ENCODING 244
SWIDTH 450 0
DWIDTH 10 0
BBX 10 10 0 0
BITMAP
7F80
0C00
0C00
0C00
0C00
0C00
0C00
0C00
0C00
0C00
ENDCHAR
STARTCHAR afii10037
ENCODING 245
SWIDTH 450 0
DWIDTH 10 0
BBX 10 10 0 0
BITMAP
6180
6180
3300
3300
1E00
1E00
0C00
0C00
3800
3800
ENDCHAR
STARTCHAR afii10024
ENCODING 246
SWIDTH 450 0
DWIDTH 10 0
BBX 10 10 0 0
BITMAP
6D80
6D80
2D00
3F00
1E00
1E00
3F00
3F00
6D80
6D80
ENDCHAR
STARTCHAR afii10019
ENCODING 247
SWIDTH 450 0
DWIDTH 10 0
BBX 8 10 0 0
BITMAP
7E
63
63
63
7E
63
63
63
63
7E
ENDCHAR
STARTCHAR afii10046
ENCODING 248
SWIDTH 450 0
DWIDTH 10 0
BBX 8 10 0 0
BITMAP
60
60
60
60
7E
63
63
63
63
7E
ENDCHAR
STARTCHAR afii10045
ENCODING 249
SWIDTH 450 0
DWIDTH 10 0
BBX 10 10 0 0
BITMAP
6180
6180
6180
6180
7980
6D80
6D80
6D80
6D80
7980
ENDCHAR
STARTCHAR afii10025
ENCODING 250
SWIDTH 450 0
DWIDTH 10 0
BBX 8 10 0 0
BITMAP
3E
63
03
03
1E
03
03
03
63
3E
ENDCHAR
STARTCHAR afii10042
ENCODING 251
SWIDTH 450 0
DWIDTH 10 0
BBX 10 10 0 0
BITMAP
6D80
6D80
6D80
6D80
6D80
6D80
6D80
6D80
6D80
7F80
ENDCHAR
STARTCHAR afii10047
ENCODING 252
SWIDTH 450 0
DWIDTH 10 0
BBX 8 10 0 0
BITMAP
3C
66
03
03
3F
03
03
03
66
3C
ENDCHAR
STARTCHAR afii10043
ENCODING 253
SWIDTH 450 0
DWIDTH 10 0
BBX 10 12 0 -2
BITMAP
DB00
DB00
DB00
DB00
DB00
DB00
DB00
DB00
DB00
FF80
0180
0300
ENDCHAR
STARTCHAR afii10041
ENCODING 254
SWIDTH 450 0
DWIDTH 10 0
BBX 8 10 0 0
BITMAP
63
63
63
63
63
63
3F
03
03
03
ENDCHAR
STARTCHAR afii10044
ENCODING 255
SWIDTH 450 0
DWIDTH 10 0
BBX 10 10 0 0
BITMAP
7800
5800
1800
1800
1F00
1980
1980
1980
1980
1F00
ENDCHAR
ENDFONT
